HIERARCHY
ROOT Hips
{
  OFFSET 0 0 0
  CHANNELS 6 Xposition Yposition Zposition Zrotation Yrotation Xrotation
  JOINT LeftThigh
  {
    OFFSET 8.409438 0 -5.917753
    CHANNELS 3 Zrotation Yrotation Xrotation
    JOINT LeftLeg
    {
      OFFSET 0 0 -42.358652
      CHANNELS 3 Zrotation Yrotation Xrotation
      JOINT LeftFoot
      {
        OFFSET 0 0 -39.357303
        CHANNELS 3 Zrotation Yrotation Xrotation
      }
    }
  }
  JOINT RightThigh
  {
    OFFSET -8.409438 0 -5.917753
    CHANNELS 3 Zrotation Yrotation Xrotation
    JOINT RightLeg
    {
      OFFSET 0 0 -42.358652
      CHANNELS 3 Zrotation Yrotation Xrotation
      JOINT RightFoot
      {
        OFFSET 0 0 -39.357303
        CHANNELS 3 Zrotation Yrotation Xrotation
      }
    }
  }
  JOINT SpineLow
  {
    OFFSET 0 0 4.719101
    CHANNELS 3 Zrotation Yrotation Xrotation
    JOINT SpineMid
    {
      OFFSET 0 0 12.899191
      CHANNELS 3 Zrotation Yrotation Xrotation
      JOINT Chest
      {
        OFFSET 0 0 12.899191
        CHANNELS 3 Zrotation Yrotation Xrotation
        JOINT LeftShoulder
        {
          OFFSET 7.550562 1.41573 9.438202
          CHANNELS 3 Zrotation Yrotation Xrotation
          JOINT LeftArm
          {
            OFFSET 9.155056 0 4.247191
            CHANNELS 3 Zrotation Yrotation Xrotation
            JOINT LeftForearm
            {
              OFFSET 0 0 25.771955
              CHANNELS 3 Zrotation Yrotation Xrotation
              JOINT LeftHand
              {
                OFFSET 0 0 25.197169
                CHANNELS 3 Zrotation Yrotation Xrotation
              }
            }
          }
        }
        JOINT RightShoulder
        {
          OFFSET -7.550562 1.41573 9.438202
          CHANNELS 3 Zrotation Yrotation Xrotation
          JOINT RightArm
          {
            OFFSET -9.155056 0 4.247191
            CHANNELS 3 Zrotation Yrotation Xrotation
            JOINT RightForearm
            {
              OFFSET 0 0 -25.771955
              CHANNELS 3 Zrotation Yrotation Xrotation
              JOINT RightHand
              {
                OFFSET 0 0 -25.197169
                CHANNELS 3 Zrotation Yrotation Xrotation
              }
            }
          }
        }
        JOINT Neck
        {
          OFFSET 0 0 15.101124
          CHANNELS 3 Zrotation Yrotation Xrotation
          JOINT Head
          {
            OFFSET 0 0 11.325843
            CHANNELS 3 Zrotation Yrotation Xrotation
            End Site
            {
              OFFSET 0 0 14.157303
            }
          }
        }
      }
    }
  }
}
MOTION
Frames: 17
Frame Time: 0.0
0.0  101.685394  0.0  8.490976  39.175744  -84.636554  -6.971795  -20.41574  31.752103  4.551289  15.457042  21.94457  -6.274819  3.02923  -5.489834  -38.33636  6.625391  -57.560291  9.989048  5.268806  62.780245  20.29617  8.458777  2.506973  -10.298507  1.231231  -1.008068  -28.212572  2.870954  -3.218214  -28.212572  2.870954  -3.218214  15.119772  29.585948  20.080578  143.966101  41.94022  -170.603997  -50.122661  -27.750891  103.622646  65.804175  -4.15423  3.285781  38.043861  -5.685184  35.433882  108.909563  60.781459  25.601326  -28.054006  3.90244  -95.561707  68.823369  24.910259  51.092124  6.379656  -4.129372  -3.12483  4.761673  -3.130131  -2.299731  
0.0  101.685394  0.0  8.345855  39.155169  -84.563269  -7.983921  -19.681481  30.626871  5.85389  15.24012  23.056439  -6.069032  2.932431  -5.6974  -38.397781  6.774528  -57.848077  9.670638  4.898227  62.721541  20.124765  8.255388  2.52802  -10.247048  1.269369  -0.963938  -28.073061  2.994295  -3.11419  -28.07306  2.994295  -3.11419  14.71451  29.538663  19.903518  144.401867  41.78168  -170.681432  -50.288795  -27.501506  103.948396  65.780287  -3.713257  3.658089  37.97018  -5.829319  35.370061  108.699794  60.684279  25.246585  -28.283703  4.223691  -95.783838  68.773755  24.602025  51.463175  6.075619  -4.372138  -3.183491  4.531835  -3.311225  -2.343192  
0.0  101.685394  0.0  8.152583  38.917275  -84.511547  -8.242892  -19.204236  30.443869  6.612548  14.95371  23.091056  -6.007654  2.886933  -5.803559  -38.206224  6.819029  -58.089679  9.285514  4.846884  62.572583  20.126789  8.053268  2.584711  -10.175647  1.28939  -0.905266  -27.877046  3.076075  -2.962538  -27.877046  3.076075  -2.962538  14.337548  29.460063  19.524424  144.72302  41.606448  -170.777056  -50.420716  -27.209328  104.338701  65.671949  -3.516353  3.815038  37.844663  -5.891182  35.232191  108.846334  60.560303  25.154409  -28.407274  4.42689  -96.131864  68.760775  24.223849  51.931295  5.797318  -4.587875  -3.346267  4.32065  -3.473119  -2.465017  
0.0  101.685394  0.0  7.855537  38.484563  -84.56293  -8.245813  -18.821784  30.241301  7.444795  14.58921  23.181139  -6.055963  2.81925  -5.855552  -37.799989  6.598505  -58.157039  9.156623  4.842039  62.396219  20.143808  7.892759  2.617273  -10.085158  1.290912  -0.848214  -27.627498  3.108249  -2.806487  -27.627496  3.108248  -2.806488  14.091187  29.377953  19.177773  144.893906  41.456746  -170.880344  -50.5481  -26.894784  104.785548  65.6012  -3.401171  3.767005  37.774212  -5.914961  35.126437  109.013184  60.451195  25.161787  -28.409821  4.500715  -96.606405  68.630974  23.825157  52.375595  5.549024  -4.742023  -3.519899  4.132187  -3.588943  -2.595525  
0.0  101.685394  0.0  7.549296  37.975814  -84.622301  -8.044166  -18.559528  30.036099  8.22019  14.23984  23.303015  -6.125577  2.772792  -5.825643  -37.412434  6.255495  -58.178933  9.129691  4.955135  62.132924  20.270878  7.715051  2.649123  -10.00732  1.290095  -0.823748  -27.413627  3.119798  -2.737248  -27.413628  3.119799  -2.737248  14.135665  29.289669  19.016826  144.913299  41.353314  -171.032662  -50.67154  -26.618832  105.305477  65.552048  -3.306746  3.499513  37.73256  -5.963186  35.214232  109.374901  60.359453  25.337493  -28.301979  4.526532  -97.208453  68.444229  23.235751  52.843027  5.359004  -4.850458  -3.617809  3.988243  -3.670027  -2.669355  
0.0  101.685394  0.0  6.712713  36.707187  -85.527485  -7.097133  -18.731487  30.4188  8.722851  13.94572  23.370588  -6.095085  2.749767  -5.711659  -36.218013  5.895197  -57.517548  9.211926  5.013796  61.851143  20.384518  7.552204  2.659874  -9.783108  1.290041  -0.693547  -26.795201  3.182297  -2.378205  -26.7952  3.182297  -2.378205  13.892156  29.124788  18.766543  145.009205  41.280179  -171.116502  -50.813547  -26.43841  105.925735  65.670916  -3.161111  3.086625  37.486993  -5.998972  35.168425  109.798443  60.214512  25.575842  -28.165206  4.581178  -97.924012  68.184501  22.288389  53.32336  5.151489  -4.921212  -3.751083  3.83114  -3.722979  -2.770241  
0.0  101.685394  0.0  6.411907  36.281133  -85.619981  -6.708498  -18.755809  30.264829  9.022176  13.671584  23.440989  -6.073227  2.752007  -5.575234  -35.925309  5.51627  -57.421556  9.271098  5.0987  61.559277  20.551801  7.400248  2.67606  -9.741345  1.280161  -0.674662  -26.679607  3.165057  -2.321691  -26.679606  3.165057  -2.321691  14.012314  29.070908  18.627838  144.994132  41.348627  -171.259609  -50.955352  -26.369081  106.605149  65.825341  -3.008655  2.586715  37.549583  -5.970973  35.308005  110.305597  60.152122  25.969888  -28.169402  4.722155  -98.722504  67.844985  20.877809  53.756306  5.015338  -4.976614  -3.843324  3.727946  -3.764449  -2.839973  
0.0  101.685394  0.0  5.476212  34.92781  -86.710499  -5.548999  -19.216124  30.774003  9.157886  13.400313  23.500636  -6.03669  2.787341  -5.383736  -34.815411  5.258403  -56.587011  9.420285  4.826942  61.279599  20.53466  7.228274  2.654807  -9.486578  1.272988  -0.500039  -25.975063  3.223953  -1.838404  -25.975063  3.223953  -1.838404  13.008796  28.788107  18.153586  145.664294  41.402763  -171.002646  -51.138808  -26.454574  107.315887  65.929704  -2.901921  2.103439  37.030095  -5.891731  35.099039  111.104708  59.924353  26.509996  -28.359907  4.978441  -99.599435  67.454951  18.87074  54.070934  4.7626  -4.995992  -4.065551  3.536562  -3.779118  -3.008425  
0.0  101.685394  0.0  5.129921  34.654973  -86.893314  -5.299454  -19.333142  30.697167  9.090251  13.22636  23.472892  -5.868514  2.780811  -5.154475  -34.56062  5.004375  -56.359205  9.369261  4.819721  60.959597  20.592765  7.081223  2.701509  -9.479749  1.25317  -0.465472  -25.953866  3.184407  -1.737462  -25.953868  3.184407  -1.737462  13.062161  28.77181  17.991081  145.685499  41.747173  -171.08026  -51.332729  -26.62009  108.060043  65.994522  -2.839526  1.67113  37.185372  -5.786224  35.236373  111.627437  59.913658  26.953141  -28.742862  5.407855  -100.502322  67.017343  16.382315  54.252871  4.664085  -5.020458  -4.175753  3.461634  -3.797654  -3.091621  
0.0  101.685394  0.0  4.264093  33.513631  -87.873631  -4.111235  -19.828304  30.724991  8.810616  12.915954  23.779358  -5.437826  2.844496  -4.830145  -33.308276  4.796583  -55.469533  9.173064  4.83251  60.625252  20.624632  6.949871  2.760126  -9.317443  1.233836  -0.317734  -25.502633  3.193972  -1.325424  -25.502632  3.193972  -1.325424  12.654514  28.647965  17.658201  145.994276  42.195567  -171.010238  -51.563164  -26.828544  108.84555  66.081408  -2.815776  1.212315  37.234263  -5.676171  35.235611  111.944966  60.019942  27.211649  -29.202025  5.884685  -101.451343  66.509543  13.828623  54.205454  4.531315  -5.0895  -4.324806  3.360349  -3.84964  -3.203854  
0.0  101.685394  0.0  3.871503  33.308507  -87.976614  -3.937456  -20.052787  30.615867  8.65502  12.809559  23.694979  -5.141028  2.87068  -4.604387  -33.031965  4.571017  -55.310582  8.9582  4.768203  60.342805  20.592817  6.85668  2.851495  -9.333404  1.194687  -0.275573  -25.542776  3.104529  -1.197764  -25.542775  3.104529  -1.197765  12.554368  28.678635  17.38448  146.061563  42.925033  -171.059097  -51.808027  -27.059388  109.673764  66.253684  -2.772019  0.69248  37.353699  -5.480744  35.242374  112.206735  60.20311  27.392731  -29.708485  6.387132  -102.386564  66.035769  11.439624  53.869267  4.507591  -5.105143  -4.487344  3.341096  -3.862418  -3.325752  
0.0  101.685394  0.0  3.424077  33.00325  -88.188813  -3.419408  -20.369334  30.247311  8.527809  12.574008  23.993725  -4.802878  2.932272  -4.3633  -32.612582  4.326835  -55.095296  8.742688  4.766712  60.139302  20.55847  6.793378  2.937262  -9.30863  1.195034  -0.19919  -25.471744  3.135169  -0.991407  -25.471743  3.135169  -0.991407  12.000764  28.448841  16.983661  146.33654  43.850977  -171.073601  -52.122957  -27.317291  110.570002  66.549585  -2.609041  0.081181  37.310205  -5.465282  35.052785  112.209596  60.546377  27.384668  -30.089079  6.720917  -103.343252  65.725118  9.330971  53.263773  4.479032  -5.194629  -4.679826  3.317327  -3.930759  -3.46952  
0.0  101.685394  0.0  2.995269  32.751562  -88.296201  -3.309747  -20.704937  30.247997  8.618455  12.531329  23.887522  -4.695291  2.968251  -4.12464  -32.203822  4.01454  -55.011785  8.549664  4.840409  60.0335  20.609746  6.726162  3.026435  -9.338454  1.150721  -0.164292  -25.550154  3.028883  -0.881936  -25.550155  3.028883  -0.881936  11.89283  28.518568  16.691433  146.407938  44.976116  -171.274782  -52.510417  -27.691615  111.580524  66.925441  -2.310338  -0.676556  37.359613  -5.245222  34.967385  112.237945  60.969648  27.368517  -30.230821  6.790231  -104.424915  65.744692  7.326272  52.521499  4.574415  -5.194945  -4.820212  3.387635  -3.932803  -3.573938  
0.0  101.685394  0.0  2.538407  32.409353  -88.396905  -3.048946  -21.037122  29.691757  8.791116  12.336208  24.162807  -4.478242  3.059305  -3.711185  -31.698197  3.617752  -54.979351  8.372004  5.080818  59.995322  20.583891  6.645862  3.048593  -9.318581  1.139859  -0.100068  -25.49271  3.024575  -0.70422  -25.49271  3.024575  -0.704219  11.221826  28.271927  16.165973  146.75155  46.201118  -171.383571  -52.951278  -28.252441  112.663655  67.329708  -1.877904  -1.577588  37.187439  -5.22093  34.583865  112.011767  61.543859  27.208606  -30.209197  6.570325  -105.664404  66.013923  5.373288  51.73055  4.809178  -5.195335  -5.021217  3.561906  -3.936579  -3.722622  
0.0  101.685394  0.0  2.173008  32.15065  -88.377616  -2.972462  -21.315793  29.606211  8.930432  12.327726  24.032882  -4.309963  3.059297  -3.414895  -31.292787  3.179969  -55.070459  8.347372  5.237078  60.026338  20.767868  6.570655  3.119739  -9.375142  1.092626  -0.083269  -25.645156  2.903278  -0.643397  -25.645156  2.903278  -0.643397  11.076056  28.30819  15.713152  146.956659  47.606534  -171.614833  -53.452954  -28.883929  113.815316  67.765219  -1.281818  -2.575802  37.279756  -4.999926  34.337119  111.90088  62.195564  27.121752  -30.153117  6.215327  -106.953233  66.469476  3.43678  50.927573  4.995885  -5.231469  -5.189317  3.700094  -3.966634  -3.846716  
0.0  101.685394  0.0  1.847224  31.756733  -88.388248  -3.043984  -21.35586  28.931236  9.301358  12.107432  24.435038  -3.911151  3.164483  -2.981813  -30.788558  2.740784  -55.13483  8.433773  5.42398  60.063472  20.939594  6.493478  3.17784  -9.392238  1.070718  -0.045632  -25.689717  2.858663  -0.534524  -25.689715  2.858662  -0.534524  10.37556  28.133988  15.045768  147.535819  49.097888  -171.70059  -54.06075  -29.49409  115.047713  68.165376  -0.53041  -3.613856  37.321983  -4.830713  33.891046  111.610803  62.997941  26.868674  -30.20741  5.915307  -108.158408  67.036412  1.367694  50.086289  5.194979  -5.295296  -5.415652  3.846775  -4.018179  -4.014064  
0.0  101.685394  0.0  1.542551  31.272219  -88.341844  -2.884438  -21.448103  28.902512  9.411902  12.09787  24.238671  -3.576008  3.150059  -2.653143  -30.244279  2.228597  -55.215453  8.652938  5.510262  60.097974  21.129401  6.416881  3.239551  -9.443045  1.03222  -0.034697  -25.827104  2.758859  -0.492375  -25.827105  2.758859  -0.492375  10.247186  28.099834  14.524862  147.819474  50.887327  -171.920963  -54.671947  -29.94401  116.283148  68.579625  0.341175  -4.628788  37.509786  -4.61998  33.443776  111.546074  63.820405  26.725497  -30.54828  5.801177  -109.156232  67.545152  -1.075806  49.046351  5.472375  -5.362976  -5.602344  4.052396  -4.073138  -4.150937  
